<svg width="1904" height="1160" viewBox="0 0 1904 1160" fill="none" xmlns="http://www.w3.org/2000/svg">
<rect y="518" width="1904" height="367" fill="#F9B300"/>
<path fill-rule="evenodd" clip-rule="evenodd" d="M-477 1052L-367.542 1022C-258.083 992 -39.1667 932 179.75 908C398.667 884 617.583 896 836.5 926C1055.42 956 1274.33 1004 1493.25 1046C1712.17 1088 1931.08 1124 2040.54 1142L2150 1160V872H2040.54C1931.08 872 1712.17 872 1493.25 872C1274.33 872 1055.42 872 836.5 872C617.583 872 398.667 872 179.75 872C-39.1667 872 -258.083 872 -367.542 872H-477V1052Z" fill="#F9B300"/>
<ellipse cx="951.5" cy="436" rx="1142.5" ry="436" fill="#F9B300"/>
</svg>
