<svg width="1904" height="2243" viewBox="0 0 1904 2243" fill="none" xmlns="http://www.w3.org/2000/svg">
<path fill-rule="evenodd" clip-rule="evenodd" d="M-477 111.75L-367.542 142.792C-258.083 173.833 -39.1667 235.917 179.75 260.75C398.667 285.583 617.583 273.167 836.5 242.125C1055.42 211.083 1274.33 161.417 1493.25 117.958C1712.17 74.5 1931.08 37.25 2040.54 18.625L2150 0V298H2040.54C1931.08 298 1712.17 298 1493.25 298C1274.33 298 1055.42 298 836.5 298C617.583 298 398.667 298 179.75 298C-39.1667 298 -258.083 298 -367.542 298H-477V111.75Z" fill="#FFF7E1"/>
<rect y="274" width="1904" height="1078" fill="#FFF7E1"/>
<path fill-rule="evenodd" clip-rule="evenodd" d="M1908.62 2243L2518.55 1510.77C1444.12 1991.68 2188.73 1158.82 1969.43 1065.51C1750.13 972.19 2557.5 2243 2182 2243C1806.5 2243 1415 2150 1222 2122.5C1029 2095 314.999 2007 287.999 2007C260.998 2007 165.123 2050 3.24703 2062.79C-158.629 2075.57 -1.37723 932.248 -1.37723 932.248L108.08 931.8C217.538 931.353 436.452 930.457 655.367 929.562C874.282 928.666 1093.2 927.771 1312.11 926.875C1531.03 925.98 1749.94 925.085 1968.86 924.189C2187.77 923.294 2406.69 922.398 2516.14 921.951L2625.6 921.503L1908.62 2243Z" fill="#FFF7E1"/>
</svg>
